# xmcd
# 
# Track frame offsets:
#     150
#     25725
#     44252
#     67447
#     90385
#     111687
#     130645
#     148990
#     175535
#     196875
#     217852
#     252352
# 
# Disc length: 4440
# 
# Revision: 6
# Processed by: cddbd v1.5.2PL0 Copyright (c) Steve Scherf et al.
# Submitted via: BonkEnc v1.0.8
# 
DISCID=ae11560c
DTITLE=kiroro - Four Leaves Clover
DYEAR=2004
DGENRE=Pop
TTITLE0=星砂
TTITLE1=ひとつぶの涙
TTITLE2=A song of love
TTITLE3=愛さない
TTITLE4=君の声
TTITLE5=チョコレート
TTITLE6=くもりのち晴れ
TTITLE7=秋風
TTITLE8=落書き
TTITLE9=Best Friend
TTITLE10=約束
TTITLE11=DATA
EXTD=YEAR: 2002
EXTT0=
EXTT1=
EXTT2=
EXTT3=
EXTT4=
EXTT5=
EXTT6=
EXTT7=
EXTT8=
EXTT9=
EXTT10=
EXTT11=
PLAYORDER=
